<svg width="1100" height="1100" viewBox="0 0 1100 1100" fill="none" xmlns="http://www.w3.org/2000/svg">
<g id="herobg">
<g id="background">
<circle id="Ellipse 3" cx="550" cy="550" r="550" fill="#1F2434"/>
<circle id="Ellipse 4" cx="549.5" cy="550.5" r="487.5" fill="#383D4A"/>
<circle id="Ellipse 5" opacity="0.3" cx="550" cy="550" r="425" fill="#515561"/>
<circle id="Ellipse 6" cx="549.5" cy="550.5" r="362.5" fill="#6A6D77"/>
<circle id="Ellipse 7" cx="550" cy="550" r="300" fill="#83868E"/>
<circle id="Ellipse 8" cx="549.5" cy="550.5" r="237.5" fill="#9B9EA5"/>
</g>
<g id="cloud2">
<path id="Vector" d="M514.47 704.156C531.727 700.083 545.972 684.649 549.37 666.346C553.951 641.665 533.769 615.778 508.545 613.981L500.76 613.426L502.233 609.319C504.306 603.542 504.149 592.469 501.901 585.885C499.31 578.297 489.34 568.368 481.722 565.787C474.732 563.42 464.124 563.343 458.65 565.622C454.793 567.227 454.41 567.206 453.42 565.339C451.315 561.367 438.335 549.68 432.677 546.662C421.341 540.617 404.107 538.399 391.305 541.337C371.107 545.973 352.527 564.594 348 584.739L346.637 590.802L341.958 588.781C339.384 587.669 335.141 586.415 332.528 585.995C322.944 584.452 307.472 590.756 301.796 598.517L299.626 601.484L295.243 599.145C284.572 593.448 272.995 595.417 265.183 604.256C258.256 612.094 256.907 620.759 261.051 630.796C261.617 632.166 260.571 633.069 256.722 634.534C249.167 637.407 241.853 644.429 237.733 652.764C234.671 658.96 234.155 661.244 234.155 668.615C234.155 683.667 241.75 695.263 255.953 701.898L262.257 704.843L386.158 705.022C458.338 705.126 511.897 704.763 514.47 704.156Z" fill="#B8B8B8" fill-opacity="0.67"/>
</g>
<g id="moon">
<path id="moon_2" d="M725 550C725 646.65 646.65 725 550 725C453.35 725 375 646.65 375 550C375 453.35 453.35 375 550 375C646.65 375 725 453.35 725 550Z" fill="white"/>
</g>
<g id="cloud1">
<path id="Vector_2" d="M545.288 740.868C524.263 735.884 506.907 716.998 502.768 694.602C497.186 664.401 521.775 632.725 552.507 630.526L561.992 629.847L560.197 624.822C557.672 617.753 557.863 604.203 560.602 596.147C563.758 586.862 575.905 574.712 585.187 571.554C593.703 568.657 606.627 568.564 613.297 571.352C617.996 573.316 618.463 573.291 619.669 571.006C622.233 566.145 638.047 551.845 644.941 548.152C658.752 540.756 679.749 538.041 695.347 541.636C719.954 547.308 742.592 570.094 748.108 594.744L749.768 602.163L755.469 599.69C758.604 598.33 763.774 596.796 766.958 596.281C778.634 594.393 797.485 602.107 804.4 611.603L807.044 615.235L812.384 612.372C825.386 605.402 839.49 607.81 849.008 618.626C857.448 628.217 859.092 638.82 854.042 651.102C853.353 652.779 854.627 653.883 859.317 655.675C868.521 659.191 877.432 667.784 882.451 677.983C886.182 685.564 886.811 688.36 886.811 697.378C886.811 715.797 877.558 729.986 860.253 738.105L852.573 741.708L701.618 741.927C613.677 742.055 548.423 741.611 545.288 740.868Z" fill="#B8B8B8" fill-opacity="0.88"/>
</g>
</g>
</svg>
