<svg width="244" height="267" viewBox="0 0 244 267" fill="none" xmlns="http://www.w3.org/2000/svg">
<path d="M109.559 265.793C92.9528 263.528 78.3037 255.321 67.8871 242.445C59.5898 232.188 54.6139 219.468 53.8263 206.503C53.6529 203.648 53.6578 203.615 54.3606 202.912L55.0699 202.203L68.025 202.278C79.7902 202.346 81.0223 202.395 81.4386 202.811C81.7543 203.127 82.0052 204.162 82.2454 206.139C83.7151 218.241 90.5454 228.218 101.26 233.914C106.563 236.734 112.334 238.009 118.78 237.785C124.416 237.59 128.064 236.492 132.066 233.788C138.776 229.255 142.926 221.655 143.296 213.229C143.61 206.064 141.799 200.698 137.237 195.274C136.586 194.499 112.483 173.54 83.6747 148.699C27.242 100.037 30.2957 102.532 28.9052 103.922L28.3498 104.477V149.419C28.3498 181.781 28.2659 194.547 28.05 195.019C27.8852 195.381 27.4542 195.812 27.0924 195.977C26.6403 196.183 22.5059 196.277 13.8799 196.277H1.32545L0.662706 195.614L0 194.951V71.2426L0.662706 70.5799L1.32545 69.9172H35.5669L36.3458 70.5216C39.3865 72.8809 153.302 171.302 155.61 173.564C160.453 178.31 163.814 182.974 166.586 188.793C170.178 196.333 171.705 203.146 171.715 211.674C171.72 216.755 171.448 219.394 170.464 223.816C165.394 246.595 147.39 263.08 124.478 265.923C121.377 266.308 112.785 266.233 109.56 265.793L109.559 265.793ZM207.194 195.671C204.151 193.311 90.2377 94.8935 87.9292 92.6282C79.2058 84.0768 73.9213 73.695 72.2282 61.7834C71.7633 58.5129 71.6962 51.058 72.102 47.768C73.6035 35.5926 79.1814 24.0331 87.6527 15.5408C92.2586 10.9235 96.2673 8.07449 102.137 5.24651C107.772 2.53193 112.941 1.0337 119.409 0.240438C123.38 -0.246615 132.389 0.0411048 136.62 0.790112C163.874 5.61528 184.869 26.9599 189.113 54.1556C189.348 55.6606 189.619 58.1694 189.714 59.7311C189.886 62.5402 189.88 62.5775 189.178 63.2797L188.468 63.9894L175.513 63.9143C163.748 63.8462 162.516 63.7972 162.1 63.3809C161.784 63.065 161.533 62.0301 161.293 60.0526C160.867 56.5469 160.098 53.4872 158.902 50.5445C154.233 39.0514 143.677 30.6436 131.495 28.7139C127.682 28.1101 121.7 28.3027 118.699 29.1261C110.095 31.4859 103.772 37.9443 101.103 47.0991C100.227 50.1034 99.916 55.2993 100.424 58.4502C101.172 63.0823 103.346 67.6059 106.585 71.2674C107.178 71.9374 131.193 92.7748 159.953 117.572C216.286 166.145 213.246 163.659 214.636 162.268L215.192 161.713V116.771C215.192 84.4091 215.276 71.6435 215.491 71.171C215.656 70.8091 216.087 70.3781 216.449 70.2133C216.901 70.0073 221.036 69.9135 229.662 69.9135H242.216L242.879 70.5762L243.541 71.239V194.948L242.879 195.61L242.216 196.273H207.975L207.194 195.671Z" fill="#FFFFFF"/>
</svg>
