<svg width="653" height="368" viewBox="0 0 653 368" fill="none" xmlns="http://www.w3.org/2000/svg">
<g id="moon">
<g id="cloud2">
<g id="cloud2_2" clip-path="url(#clip0_147_13)">
<path id="Vector" d="M280.47 329.156C297.727 325.083 311.972 309.649 315.37 291.346C319.951 266.664 299.769 240.778 274.545 238.981L266.76 238.426L268.233 234.319C270.306 228.542 270.149 217.469 267.901 210.885C265.31 203.297 255.34 193.368 247.722 190.787C240.732 188.42 230.124 188.343 224.65 190.622C220.793 192.227 220.41 192.206 219.42 190.339C217.315 186.366 204.335 174.68 198.677 171.662C187.341 165.617 170.107 163.399 157.305 166.337C137.107 170.973 118.527 189.594 114 209.739L112.637 215.802L107.958 213.781C105.384 212.669 101.141 211.415 98.528 210.995C88.9441 209.452 73.472 215.756 67.7963 223.517L65.6258 226.484L61.2433 224.145C50.5717 218.448 38.9948 220.417 31.1827 229.256C24.2556 237.094 22.9066 245.759 27.0512 255.796C27.617 257.166 26.5712 258.069 22.7216 259.534C15.1668 262.407 7.85303 269.429 3.73345 277.764C0.671019 283.96 0.155307 286.244 0.155307 293.614C0.155307 308.667 7.74958 320.263 21.9531 326.898L28.2568 329.843L152.158 330.022C224.338 330.126 277.897 329.763 280.47 329.156Z" fill="#B8B8B8" fill-opacity="0.67"/>
</g>
</g>
<g id="moon_2">
<path id="moon_3" d="M491 175C491 271.65 412.65 350 316 350C219.35 350 141 271.65 141 175C141 78.3502 219.35 0 316 0C412.65 0 491 78.3502 491 175Z" fill="white"/>
</g>
<g id="cloud1">
<g id="clouds 1" clip-path="url(#clip1_147_13)">
<path id="Vector_2" d="M311.288 365.868C290.263 360.884 272.907 341.998 268.768 319.602C263.186 289.401 287.775 257.725 318.507 255.526L327.992 254.847L326.197 249.822C323.672 242.753 323.863 229.203 326.602 221.147C329.758 211.862 341.905 199.712 351.187 196.554C359.703 193.657 372.627 193.564 379.297 196.352C383.996 198.316 384.463 198.291 385.669 196.006C388.233 191.145 404.047 176.845 410.941 173.152C424.752 165.756 445.749 163.041 461.347 166.636C485.954 172.308 508.592 195.094 514.108 219.744L515.768 227.163L521.469 224.69C524.604 223.33 529.774 221.796 532.958 221.281C544.634 219.393 563.485 227.108 570.4 236.603L573.044 240.235L578.384 237.372C591.386 230.402 605.49 232.81 615.008 243.626C623.448 253.217 625.092 263.82 620.042 276.102C619.353 277.779 620.627 278.883 625.317 280.675C634.521 284.191 643.432 292.784 648.451 302.983C652.182 310.564 652.811 313.36 652.811 322.378C652.811 340.797 643.558 354.986 626.253 363.105L618.573 366.708L467.618 366.927C379.677 367.055 314.423 366.611 311.288 365.868Z" fill="#B8B8B8" fill-opacity="0.88"/>
</g>
</g>
</g>
<defs>
<clipPath id="clip0_147_13">
<rect width="316" height="165.292" fill="white" transform="matrix(-1 0 0 1 316 165)"/>
</clipPath>
<clipPath id="clip1_147_13">
<rect width="385" height="202.258" fill="white" transform="translate(268 165)"/>
</clipPath>
</defs>
</svg>
