<svg version="1.1" viewBox="0 0 1716.4 1192.7" xmlns="http://www.w3.org/2000/svg">
 <defs>
  <clipPath id="clipPath1764">
   <path d="m590.71 1031.4c-3.4924-1.016-6.8328-2.8147-10.713-5.7688-2.1614-1.6454-5.3877-3.877-7.1694-4.9591-5.2221-3.1713-12.217-10.302-15.695-15.998-1.7684-2.8967-4.922-7.9083-7.008-11.137-16.875-26.12-22.34-47.853-21.347-84.898 0.60954-22.733 1.6076-31.44 10.849-94.643 10.894-74.5 14.365-102.68 21.08-171.12 6.1756-62.948 9.1892-88.429 19.613-165.84 11.547-85.742 12.816-98.811 12.862-132.43 0.0329-24.197-0.35087-30.078-2.5661-39.32-0.6388-2.6653-1.005-3.0805-3.3458-3.794-3.7056-1.1294-12.569-0.94949-17.633 0.35789-31.553 8.1461-75.789 40.954-109.21 80.996l-6.915 8.2852 0.45604 20.076c0.81172 35.733-2.3189 76.712-9.0804 118.86-10.301 64.21-36.982 182.87-62.196 276.6-11.946 44.407-19.95 72.549-36.734 129.15-4.2464 14.32-9.605 28.593-11.707 31.183-0.73041 0.90009-2.3253 3.7733-3.5442 6.385-2.6311 5.6374-5.6295 9.0794-9.4065 10.798-3.9872 1.8144-6.4442 1.6222-8.9358-0.69882-1.1542-1.0752-3.7063-2.9304-5.6712-4.1227-5.9285-3.5971-6.6019-4.252-9.479-9.2181-1.5231-2.629-4.7478-7.9367-7.1662-11.795-5.1091-8.1513-6.433-11.572-7.0395-18.188-0.58353-6.3653 0.69574-11.734 14.041-58.924 25.308-89.495 38.873-141.65 58.508-224.98 31.952-135.59 41.529-194.6 41.52-255.84-6e-3 -35.896-3.8607-61.025-12.148-79.19-4.2-9.2057-12.266-15.403-24.289-18.661-5.5102-1.4934-16.623-1.9716-23.344-1.0045-20.146 2.8988-49.098 17.666-82.273 41.965-15.909 11.652-46.709 35.958-52.967 41.799-2.855 2.6646-4.2319 2.8556-6.229 0.86409-4.4253-4.4129-5.7284-8.4022-4.1388-12.671 3.4778-9.3394 27.811-35.973 54.718-59.889 26.284-23.363 49.614-38.838 68.505-45.438 7.8496-2.7427 22.552-6.0182 33.507-7.465 16.794-2.218 24.783-0.95256 41.875 6.6329 10.609 4.7084 16.648 8.6218 23.654 15.328 14.449 13.831 25.584 34.794 32.041 60.324 1.8767 7.4197 4.4138 20.854 5.2355 27.724l0.5337 4.4613 3.873-5.7359c14.07-20.838 30.13-39.163 50.752-57.91 17.469-15.881 33.239-27.009 46.977-33.149 10.084-4.5072 29.862-8.5055 38.627-7.8088 5.9126 0.46996 16.715 5.2139 21.37 9.3853 15.301 13.709 20.957 41.802 20.006 99.361-0.45024 27.246-1.3338 42.306-5.1599 87.951-8.4621 100.95-8.9617 107.62-12.481 166.66-5.1526 86.429-7.3279 110.6-17.493 194.38-6.3928 52.69-7.0279 59.803-7.0564 79.028-0.0255 17.195 0.74813 25.367 3.3486 35.371l0.91113 3.5053 2.3738-5.4172c13.1-29.895 36.408-91.075 54.024-141.8 8.4333-24.286 17.487-48.88 22.581-61.336 8.9681-21.933 21.665-45.452 25.52-47.271 0.64769-0.30566 3.9106-1.0483 7.251-1.6503 3.3404-0.60198 6.5737-1.3304 7.1852-1.6188 0.61147-0.28837 2.8622-0.67322 5.0016-0.85521 2.1394-0.18201 5.518-0.51984 7.508-0.75076 3.3597-0.38986 3.7706-0.28385 5.7531 1.4844 1.343 1.1979 3.224 2.0684 5.0711 2.3468 3.229 0.48659 4.0519 1.1526 6.8724 5.5617 1.445 2.2589 1.9072 3.8511 1.9072 6.5698 0 6.8346-3.301 22.1-5.4063 25.001-0.56339 0.77635-1.0264 1.9235-1.029 2.5493-3e-3 0.62576-1.8564 4.4329-4.1196 8.4603-2.9405 5.2326-4.7481 7.6883-6.3334 8.6039-2.0773 1.1997-2.3851 1.9103-4.8344 11.16-4.869 18.387-8.4335 37.103-11.167 58.634-3.4583 27.241-3.071 50.484 1.1733 70.424 1.4369 6.7505 4.6202 16.889 5.3029 16.889 0.29871 0 1.7821-1.3429 3.2964-2.9842s3.5773-3.864 4.5844-4.9393c6.0948-6.5074 15.84-19.932 34.269-47.21 25.094-37.143 41.092-58.586 62.759-84.122 24.465-28.833 48.099-50.229 71.53-64.756 12.058-7.4759 17.346-9.9212 25.494-11.79 3.8724-0.88807 8.1661-1.8765 9.5416-2.1964 1.3754-0.31996 5.5789-0.77012 9.3412-1.0004 5.7409-0.35134 7.1347-0.24666 8.671 0.65124 1.6634 0.97218 2.2459 0.98586 6.3781 0.14979 7.4852-1.5144 14.601-2.3174 20.537-2.3174 5.6054 0 7.1151 0.43565 14.735 4.252 0.78597 0.39365 2.7947 1.2186 4.4639 1.8332 3.5185 1.2955 9.3512 6.5311 11.54 10.359 2.9935 5.2338 3.8093 10.408 3.4362 21.795-0.3004 9.1754-0.6214 11.409-2.5176 17.526-4.2073 13.572-12.201 29.81-18.36 37.293-3.6711 4.4607-9.3733 8.8519-13.925 10.723-4.5933 1.8886-10.472 2.507-12.937 1.361-2.2828-1.0612-8.6197-5.4346-12.445-8.5889-5.1131-4.2164-17.411-25.186-17.474-29.795-9e-3 -0.61342-0.28753-1.1153-0.62056-1.1153-1.1844 0-11.31 8.1938-19.445 15.735-35.347 32.769-50.066 63.544-50.235 105.04-0.055 13.431 0.94159 19.952 4.4866 29.361 2.543 6.7502 5.6969 11.403 10.742 15.849 4.9577 4.3683 9.5626 5.6372 20.759 5.72 7.1256 0.0529 7.8613-0.0709 14.648-2.4618 10.488-3.695 28.562-12.022 40.241-18.54 43.717-24.397 94.173-66.595 128.76-107.68 10.363-12.311 25.634-32.506 26.025-34.415 0.1435-0.70106 1.1209-7.871 2.1719-15.933 4.6653-35.79 12.513-70.599 32.256-143.08 10.367-38.058 13.131-49.257 15.728-63.732 2.0742-11.559 3.8378-16.62 6.4232-18.434 0.972-0.68192 4.5228-1.6489 8.3046-2.2616 3.6337-0.5887 7.2572-1.4426 8.0522-1.8977s3.6889-1.0054 6.4306-1.2231c2.742-0.2177 6.4602-0.5657 8.2629-0.77335 3.0573-0.35214 3.4107-0.23655 5.2555 1.7191 1.5368 1.6291 2.868 2.2551 5.97 2.8076 6.676 1.189 6.3749 0.13537 8.0103 28.032 2.6981 46.024 3.032 55.373 2.5954 72.653-0.4836 19.136-1.1928 27.945-3.3866 42.063-3.0677 19.743-10.256 46.575-17.471 65.211-2.486 6.4219-4.1381 11.401-3.6713 11.065 2.2641-1.6306 15.861-7.8609 21.57-9.8836 8.0202-2.8416 25.458-7.0324 35.368-8.5 9.9697-1.4764 23.239-1.4682 28.938 0.018 2.3579 0.61487 8.3062 2.8887 13.218 5.053 7.1182 3.1361 9.802 4.7134 13.219 7.769 4.5131 4.0357 8.2761 9.9197 9.5845 14.987 1.1299 4.376 0.9361 17.828-0.338 23.449-4.1309 18.224-16.977 40.476-31.192 54.03-9.1464 8.7211-25.339 19.843-40.801 28.025-4.5735 2.42-8.0817 4.5796-7.796 4.7989 2.4064 1.8475 36.048 10.76 54.823 14.524 43.5 8.7214 84.419 13.455 152.19 17.607 41.318 2.531 47.824 3.7652 90.744 17.214 25.981 8.1415 24.052 7.2131 22.51 10.83-0.8524 1.9996-4.5207 3.5677-27.63 11.811-33.373 11.905-51.307 15.222-75.263 13.922-12.842-0.69671-47.853-3.8522-66.45-5.9889-60.399-6.9398-114.39-17.7-150.76-30.043-12.573-4.2671-34.462-13.747-40.471-17.527-14.186-8.9246-19.25-13.141-21.959-18.286-0.8566-1.6263-2.9766-5.1079-4.7112-7.7368-4.0102-6.0779-5.5166-9.6369-6.1317-14.487-0.4236-3.3388-0.2466-4.3466 1.288-7.3365 0.9784-1.9063 2.7044-4.0414 3.8356-4.7447 1.1311-0.70329 7.5226-3.2191 14.203-5.5907 48.275-17.137 80.068-37.668 91.438-59.049 1.3773-2.5898 2.7064-6.0322 2.9536-7.6498l0.4496-2.941-4.8225-0.81164c-24.244-4.0803-56.795 10.949-85.213 39.344-12.646 12.636-22.854 26.51-28.165 38.281l-3.0781 6.822 0.08 8.2852c0.1449 15.191 3.7166 41.917 7.9208 59.271 2.5678 10.599 2.8786 17.753 1.048 24.126-0.791 2.7536-2.1054 5.6401-2.9208 6.4143-1.006 0.95516-1.4827 2.2531-1.4827 4.0376 0 1.4465-0.3053 2.7983-0.6785 3.004-0.3732 0.20573-2.1034 3.0571-3.8451 6.3365-2.4717 4.6543-3.7701 6.3284-5.9179 7.6302-3.3686 2.0417-6.6998 2.1645-8.5611 0.31553-0.7486-0.74369-3.1296-2.4295-5.291-3.7464s-4.5507-3.011-5.3094-3.7647c-1.4776-1.4676-7.9224-11.79-12.571-20.135-6.6194-11.883-12.791-37.046-14.121-57.573l-0.5094-7.8618-6.6236 6.666c-9.6573 9.719-34.594 31.413-46.965 40.856-30.667 23.411-55.521 38.422-83.583 50.48-47.523 20.42-86.187 22.048-109.45 4.6088-2.0249-1.5182-5.9954-4.3378-8.8234-6.2657-8.5431-5.824-11.3-9.1714-22.304-27.086-6.8033-11.075-8.7088-14.678-10.786-20.394-5.655-15.564-7.7538-32.202-6.2708-49.711 0.44536-5.2579 0.98961-10.42 1.2095-11.472 0.3594-1.7189 0.15305-1.5902-2.043 1.2746-1.3435 1.7526-8.3272 11.79-15.519 22.306-25.049 36.626-35.944 50.283-49.062 61.502-12.141 10.383-21.791 13.392-29.91 9.3258-3.9212-1.9638-11.845-7.9052-14.277-10.705-3.3503-3.857-12.125-18.044-14.679-23.735-2.1457-4.7798-5.6975-17.011-5.6975-19.62 0-2.8236-1.2775 0.0535-5.9974 13.506-11.48 32.722-18.047 50.783-22.362 61.502-4.9343 12.259-15.821 32.753-21.577 40.617-6.8475 9.3561-16.228 16.684-24.606 19.221-4.1703 1.2628-10.258 1.7947-12.633 1.1035zm132.19-399.48c0-0.33999-0.81443-1.0069-1.8098-1.4821-0.99804-0.47643-3.0813-2.9184-4.6444-5.4441-4.7124-7.6144-3.8518-10.445 5.5258-18.173 9.9782-8.2231 13.963-10.367 24.174-13.006 9.3606-2.4196 18.444-3.601 26.047-3.3881 8.2297 0.23048 8.5484 0.67879 4.5907 6.4579-8.2741 12.082-18.342 22.978-24.472 26.487-5.5827 3.1954-20.645 8.4573-25.282 8.8324-2.4486 0.19804-4.1296 0.0824-4.1296-0.28414z" stroke-width=".67482"/>
  </clipPath>
 </defs>
 <path d="m187.08 389.93s187.92-210.73 230.21-51.608c42.29 159.13-100.01 619.61-100.01 619.61s-12.164 46.629-15.205 19.26 12.164-82.108 12.164-82.108l37.506-128.74 87.684-359.35 13.178-23.822s108.46-130.26 140.4-93.259c31.931 36.999 18.753 127.22 18.753 127.22l-32.945 329.95s-19.26 127.72-19.26 155.09c0 27.369 21.287 186.52 73.999 27.369 52.712-159.15 61.835-192.6 61.835-192.6l14.192-26.356s22.301-14.192 20.274-5.0684c-2.0274 9.1232-24.328 63.862-24.328 63.862s-24.328 78.054-7.0958 119.61 3.0411 68.931 57.78 0c54.739-68.931 143.94-192.6 199.7-190.57 55.753 2.0274 29.397 47.643 29.397 47.643s-14.192 37.506-28.383 2.0274c-14.192-35.479-28.383-20.274-45.616-6.0821-17.233 14.192-81.095 60.821-75.013 120.63 6.0821 59.807 35.479 125.7 128.74 68.931 93.259-56.766 191.59-173.34 206.79-216.93 15.205-43.588 38.52-131.78 31.424-162.19s-21.287-15.205-21.287-15.205-99.341 327.42-34.465 403.45c64.876 76.026-22.301-104.41-22.301-104.41s30.41-59.807 68.93-77.04 77.04-37.506 94.273-14.192c17.233 23.315-15.205 64.876-87.177 93.259-71.972 28.383 190.57 69.944 190.57 69.944l154.08 6.0821 14.192-3.0411s-261.53-452.1-326.41-451.09c-64.876 1.0137-294.98 141.92-312.21 168.27s-212.87 19.26-212.87 19.26l-35.479 1e-5 14.192-17.233 19.26-3.041s-39.534 16.219 16.219-8.1095c55.753-24.328 89.204-40.547 89.204-40.547l-7.0958 23.315" clip-path="url(#clipPath1764)" fill="none" stroke="#4853c3" stroke-width="51.647"/>
</svg>
