<svg width="551" height="349" viewBox="0 0 551 349" fill="none" xmlns="http://www.w3.org/2000/svg">
<mask id="mask0_119_12" style="mask-type:alpha" maskUnits="userSpaceOnUse" x="0" y="0" width="551" height="349">
<path fill-rule="evenodd" clip-rule="evenodd" d="M55.996 1.82313C48.641 3.81713 46.742 4.72614 38.971 9.97614C24.909 19.4761 0.0140046 46.9591 4.63147e-06 52.9991C-0.00199537 53.8561 0.644005 55.4311 1.437 56.4991C2.816 58.3581 3.123 58.2051 8.687 52.8841C22.871 39.3181 38.453 27.4161 48.562 22.4251C60.127 16.7161 72.957 18.1581 77.282 25.6531C82.785 35.1861 84.61 65.3021 81.439 94.2331C77.626 129.019 64.579 193.089 45.929 268.613C41.016 288.507 36.996 305.956 36.996 307.387C36.996 311.419 43.437 323.277 47.169 326.118C51.721 329.583 54.09 328.35 57.505 320.74C60.915 313.143 60.553 314.407 70.451 275.44C86.422 212.563 100.413 143.241 104.479 106.848C105.303 99.4741 105.981 85.7071 105.986 76.2561L105.996 59.0711L111.834 51.7561C123.719 36.8641 140.414 23.2381 151.281 19.5601C160.206 16.5391 161.546 17.6911 162.506 29.2131C163.383 39.7481 161.987 57.7581 157.022 99.9401C152.958 134.459 151.209 151.358 148.481 182.44C146.95 199.881 144.803 218.767 139.613 260.44C134.244 303.558 135.214 314.75 145.972 333.807C150.494 341.818 158.547 348.94 163.083 348.94C173.211 348.94 180.274 337.77 190.59 305.44L196.333 287.44L197.506 291.94C200.146 302.069 208.348 312.94 213.349 312.94C219.44 312.94 229.391 301.964 241.367 282.037C245.696 274.834 249.296 268.939 249.367 268.938C249.438 268.936 249.344 272.411 249.159 276.658C248.7 287.185 250.381 294.967 255.15 304.395C260.041 314.065 261.576 316.076 267.559 320.644C276.102 327.167 284.232 328.326 297.586 324.926C315.046 320.48 334.601 307.976 355.127 288.134L367.857 275.828L368.454 280.634C369.8 291.471 372.228 300.796 375.272 306.817C378.702 313.601 383.694 318.377 386.307 317.374C387.172 317.042 389.306 313.345 391.049 309.158L394.218 301.546L392.638 294.354C391.768 290.399 390.527 281.933 389.879 275.542L388.701 263.921L392.523 256.181C395.447 250.259 398.361 246.428 404.921 239.88C415.599 229.22 423.402 224.94 432.156 224.94C439.194 224.94 439.508 225.908 434.835 233.191C429.589 241.366 417.683 249.267 397.783 257.779C391.231 260.581 390.649 263.349 394.891 271.531C399.9 281.191 410.913 287.953 431.996 294.311C462.74 303.583 510.697 309.517 525.496 305.881C532.182 304.238 548.13 297.993 549.953 296.304C552.12 294.297 550.818 293.575 536.946 289.095C522.894 284.557 516.46 283.386 500.496 282.461C485.831 281.61 460.815 278.48 448.65 275.974C439.069 274 421.996 269.185 421.996 268.456C421.996 268.257 425.058 266.058 428.801 263.57C438.013 257.445 445.06 249.737 449.573 240.846C452.762 234.564 453.398 232.225 453.759 225.44C454.141 218.267 453.939 217.078 451.804 213.94C449.29 210.245 442.736 206.387 437.166 205.323C432.505 204.433 418.773 207.388 411.285 210.892C407.826 212.511 404.996 213.647 404.996 213.418C404.996 213.189 406.115 209.575 407.482 205.386C412.746 189.26 414.439 177.116 414.446 155.44C414.45 144.44 414.084 131.065 413.633 125.718C412.83 116.193 412.751 115.964 409.751 114.468C406.039 112.616 404.39 112.575 398.374 114.184C392.95 115.635 391.458 117.59 390.549 124.44C390.184 127.19 387.023 141.59 383.525 156.44C375.975 188.493 373.486 200.806 371.683 215.019C370.351 225.514 370.293 225.667 364.23 234.519C342.551 266.171 299.862 300.425 284.282 298.669C279.064 298.081 276.356 295.894 273.816 290.216C268.215 277.7 271.843 254.869 281.747 240.3C286.307 233.592 296.968 221.932 298.523 221.953C299.058 221.96 300.805 224.692 302.405 228.023C305.649 234.779 310.257 238.94 314.495 238.94C318.625 238.94 323.912 232.795 327.451 223.882C329.899 217.717 330.413 214.958 330.451 207.798C330.503 197.867 329.56 196.158 322.17 192.792C318.848 191.278 316.796 190.97 313.645 191.511C311.363 191.903 307.497 192.153 305.055 192.066C297.616 191.803 290.73 194.479 282.087 200.992C267.329 212.112 252.102 231.364 231.356 265.13C224.833 275.747 218.153 285.965 216.511 287.837L213.526 291.239L212.32 287.075C210.292 280.071 209.682 265.182 210.943 253.44C212.643 237.602 215.865 221.769 217.864 219.44C222.099 214.503 225.055 203.296 223.625 197.596C223.273 196.194 221.679 194.429 220.014 193.599C217.454 192.322 216.228 192.299 211.337 193.436C207.667 194.289 205.033 195.565 203.933 197.024C200.587 201.459 194.042 218.852 185.148 246.94C172.461 287.003 163.841 310.79 162.889 308.361C161.293 304.287 162.057 279.577 164.454 257.786C167.547 229.656 169.596 205.023 170.969 179.44C172.557 149.851 173.948 127.88 175.051 114.94C179.128 67.1051 179.806 42.8921 177.496 27.5641C175.795 16.2791 173.187 10.6701 167.996 7.13214C163.147 3.82614 154.414 4.47113 145.692 8.77913C135.077 14.0221 119.026 30.3231 109.24 45.7991L105.27 52.0791L104.569 45.7591C103.772 38.5841 98.926 23.2461 95.787 17.9691C89.477 7.35913 77.931 -0.105864 67.996 0.00113558C64.971 0.0341356 59.571 0.853134 55.996 1.82313ZM225.771 150.641C219.423 152.307 210.996 158.768 210.996 161.969C210.996 162.992 212.014 165.012 213.259 166.459L215.521 169.09L221.06 167.017C224.107 165.877 227.977 163.481 229.66 161.692C233.814 157.279 238.023 150.792 237.393 149.773C236.658 148.585 232.392 148.903 225.771 150.641Z" fill="black"/>
</mask>
<g mask="url(#mask0_119_12)">
<path d="M0.5 57.5001C6 50.5001 21.8 31.5001 29 27.5001C38 22.5001 73.5 -9.5 90.5 30C107.5 69.5 69.5 267 59 291C50.6 310.2 43.3333 324.167 45 324C62.1667 238.5 96.8 66.7001 98 63.5001C99.2 60.3001 103.833 55.5001 106 53.5001C128.333 25.8334 172.5 -16.2999 170.5 36.5001C168 102.5 150 280.5 150 291C150 301.5 158 361 181 296C199.4 244 206.667 216.833 210.5 207.5L217.5 194.5C212.333 218 199.7 269.9 204.5 283.5C210.5 300.5 211 313.5 229.5 283.5C244.438 259.276 289.934 200.273 309.5 201M309.5 201C314.166 201.173 311.556 205.606 313 213.5C319 246.3 316.333 245.333 313 240C317.776 224.004 326.563 191.804 309.5 201ZM309.5 201C293.667 207.331 259 231.3 261 266.5C263.5 310.5 284 324 313 305C342 286 411 208 411 157.5C411 117.1 400.167 120 396 130.5L383.5 207.5C381.441 217.385 380.761 232.269 380 249.5M380 249.5C379.222 267.131 378.443 287.149 383.5 300.5C393.5 326.9 391 311.5 388.5 300.5C381.642 289.333 371.771 262.3 380 249.5ZM380 249.5C397.096 232.333 431.4 202.5 441 216.5C453 234 433.5 249 411 261C393 270.6 432.833 283.333 455 288.5C475.833 291.333 519.5 296.8 527.5 296C535.5 295.2 559.833 285.667 565 286L309.5 164.5L226.5 184C214.167 179.667 185.6 185.9 194 177.5C204.5 167 220.5 157 237 149.5C250.2 143.5 247.5 152.333 244.5 157.5" stroke="#FF0000" stroke-width="21"/>
</g>
</svg>
