  <svg
    width="100%"
    height="auto"
    viewBox="0 0 1716.4 1192.7"
    xmlns="http://www.w3.org/2000/svg"
    preserveAspectRatio="xMidYMid meet"
    className={className}
  >
    <defs>
      <clipPath id="a">
        <path
          d="M590.71 1031.4c-3.492-1.016-6.833-2.815-10.713-5.769-2.161-1.645-5.388-3.877-7.17-4.959-5.221-3.171-12.216-10.302-15.694-15.998a627.004 627.004 0 0 0-7.008-11.137c-16.875-26.12-22.34-47.853-21.347-84.898.61-22.733 1.607-31.44 10.849-94.643 10.894-74.5 14.365-102.68 21.08-171.12 6.175-62.948 9.189-88.429 19.613-165.84 11.547-85.742 12.816-98.81 12.862-132.43.032-24.197-.351-30.078-2.567-39.32-.638-2.665-1.005-3.08-3.345-3.794-3.706-1.13-12.57-.95-17.633.358-31.553 8.146-75.79 40.954-109.21 80.996l-6.915 8.285.456 20.076c.811 35.733-2.32 76.712-9.08 118.86-10.302 64.21-36.983 182.87-62.197 276.6-11.946 44.407-19.95 72.55-36.734 129.15-4.246 14.32-9.605 28.593-11.707 31.183-.73.9-2.325 3.773-3.544 6.385-2.631 5.638-5.63 9.08-9.406 10.798-3.988 1.815-6.445 1.622-8.936-.699-1.154-1.075-3.706-2.93-5.671-4.122-5.929-3.597-6.602-4.252-9.48-9.218-1.522-2.63-4.747-7.937-7.166-11.795-5.109-8.152-6.433-11.572-7.04-18.188-.583-6.366.697-11.734 14.042-58.924 25.308-89.495 38.873-141.65 58.508-224.98 31.952-135.59 41.529-194.6 41.52-255.84-.006-35.896-3.86-61.025-12.148-79.19-4.2-9.206-12.266-15.403-24.29-18.661-5.51-1.494-16.622-1.972-23.343-1.005-20.146 2.899-49.098 17.666-82.273 41.965-15.91 11.652-46.71 35.958-52.967 41.8-2.855 2.664-4.232 2.855-6.23.863-4.424-4.413-5.727-8.402-4.138-12.67 3.478-9.34 27.811-35.974 54.718-59.89 26.284-23.363 49.614-38.838 68.505-45.438 7.85-2.743 22.552-6.018 33.507-7.465 16.794-2.218 24.783-.952 41.875 6.633 10.61 4.708 16.648 8.622 23.654 15.328 14.45 13.831 25.584 34.794 32.041 60.324 1.877 7.42 4.414 20.854 5.236 27.724l.533 4.461 3.873-5.736c14.07-20.838 30.13-39.163 50.752-57.91 17.47-15.88 33.24-27.009 46.977-33.149 10.084-4.507 29.862-8.505 38.627-7.808 5.913.47 16.715 5.214 21.37 9.385 15.301 13.709 20.957 41.802 20.006 99.361-.45 27.246-1.333 42.306-5.16 87.951-8.462 100.95-8.961 107.62-12.48 166.66-5.153 86.429-7.328 110.6-17.494 194.38-6.392 52.69-7.027 59.803-7.056 79.028-.025 17.195.748 25.367 3.349 35.371l.91 3.505 2.375-5.417c13.1-29.895 36.408-91.075 54.024-141.8 8.433-24.286 17.487-48.88 22.58-61.336 8.969-21.933 21.666-45.452 25.52-47.27.648-.307 3.911-1.05 7.252-1.651 3.34-.602 6.573-1.33 7.185-1.619.611-.288 2.862-.673 5.001-.855 2.14-.182 5.518-.52 7.508-.751 3.36-.39 3.771-.284 5.753 1.484 1.343 1.198 3.224 2.069 5.072 2.347 3.229.487 4.051 1.153 6.872 5.562 1.445 2.259 1.907 3.851 1.907 6.57 0 6.834-3.3 22.1-5.406 25-.564.777-1.027 1.924-1.03 2.55-.002.626-1.856 4.433-4.119 8.46-2.94 5.233-4.748 7.689-6.333 8.604-2.077 1.2-2.385 1.91-4.835 11.16-4.869 18.387-8.433 37.103-11.167 58.634-3.458 27.241-3.07 50.484 1.174 70.424 1.437 6.75 4.62 16.89 5.303 16.89.298 0 1.782-1.344 3.296-2.985s3.577-3.864 4.584-4.94c6.095-6.507 15.84-19.931 34.27-47.21 25.093-37.142 41.091-58.585 62.758-84.121 24.465-28.833 48.1-50.23 71.53-64.756 12.058-7.476 17.346-9.922 25.494-11.79 3.873-.888 8.167-1.877 9.542-2.197 1.375-.32 5.579-.77 9.341-1 5.741-.351 7.135-.247 8.671.651 1.664.972 2.246.986 6.378.15 7.486-1.514 14.601-2.317 20.537-2.317 5.606 0 7.115.435 14.735 4.252.786.393 2.795 1.218 4.464 1.833 3.519 1.295 9.351 6.53 11.54 10.359 2.994 5.234 3.81 10.408 3.436 21.795-.3 9.175-.62 11.409-2.517 17.526-4.207 13.572-12.201 29.81-18.36 37.293-3.671 4.46-9.373 8.852-13.925 10.723-4.593 1.888-10.472 2.507-12.937 1.36-2.283-1.06-8.62-5.434-12.445-8.588-5.113-4.217-17.411-25.186-17.474-29.795-.01-.614-.288-1.115-.62-1.115-1.185 0-11.31 8.193-19.446 15.735-35.347 32.769-50.066 63.544-50.235 105.04-.055 13.43.942 19.952 4.487 29.36 2.543 6.75 5.697 11.404 10.742 15.85 4.958 4.368 9.563 5.637 20.759 5.72 7.126.052 7.861-.071 14.648-2.462 10.488-3.695 28.562-12.022 40.24-18.54 43.718-24.397 94.174-66.595 128.76-107.68 10.364-12.311 25.635-32.506 26.026-34.415.143-.701 1.12-7.871 2.172-15.933 4.665-35.79 12.513-70.6 32.256-143.08 10.367-38.058 13.13-49.257 15.728-63.732 2.074-11.56 3.838-16.62 6.423-18.434.972-.682 4.523-1.65 8.305-2.262 3.633-.589 7.257-1.442 8.052-1.898s3.689-1.005 6.43-1.223c2.742-.217 6.46-.565 8.263-.773 3.058-.352 3.411-.237 5.256 1.72 1.537 1.628 2.868 2.254 5.97 2.807 6.676 1.189 6.375.135 8.01 28.032 2.698 46.024 3.032 55.373 2.596 72.653-.484 19.136-1.193 27.945-3.387 42.063-3.068 19.743-10.256 46.575-17.471 65.21-2.486 6.423-4.138 11.402-3.671 11.066 2.264-1.63 15.86-7.861 21.57-9.884 8.02-2.842 25.458-7.032 35.368-8.5 9.97-1.476 23.239-1.468 28.938.018 2.358.615 8.306 2.889 13.218 5.053 7.118 3.136 9.802 4.713 13.219 7.77 4.513 4.035 8.276 9.919 9.584 14.986 1.13 4.376.936 17.828-.338 23.45-4.13 18.223-16.977 40.475-31.192 54.03-9.146 8.72-25.339 19.842-40.8 28.024-4.574 2.42-8.083 4.58-7.797 4.799 2.407 1.847 36.048 10.76 54.823 14.524 43.5 8.721 84.42 13.455 152.19 17.607 41.318 2.531 47.824 3.765 90.744 17.214 25.981 8.141 24.052 7.213 22.51 10.83-.852 2-4.52 3.568-27.63 11.811-33.373 11.905-51.307 15.222-75.263 13.922-12.842-.697-47.853-3.852-66.45-5.989-60.399-6.94-114.39-17.7-150.76-30.043-12.573-4.267-34.462-13.747-40.47-17.527-14.187-8.925-19.25-13.14-21.96-18.286-.856-1.626-2.976-5.108-4.711-7.737-4.01-6.078-5.517-9.637-6.132-14.487-.423-3.339-.246-4.346 1.288-7.336.979-1.907 2.705-4.042 3.836-4.745 1.13-.703 7.522-3.219 14.203-5.59 48.275-17.138 80.068-37.669 91.438-59.05 1.377-2.59 2.706-6.032 2.953-7.65l.45-2.94-4.822-.812c-24.244-4.08-56.795 10.949-85.213 39.344-12.646 12.636-22.854 26.51-28.165 38.28l-3.079 6.823.08 8.285c.145 15.191 3.717 41.917 7.921 59.271 2.568 10.6 2.879 17.753 1.048 24.126-.79 2.754-2.105 5.64-2.92 6.414-1.007.956-1.483 2.254-1.483 4.038 0 1.447-.306 2.798-.679 3.004-.373.206-2.103 3.057-3.845 6.337-2.472 4.654-3.77 6.328-5.918 7.63-3.368 2.041-6.7 2.164-8.56.315-.75-.743-3.13-2.43-5.292-3.746s-4.55-3.011-5.31-3.765c-1.477-1.467-7.922-11.79-12.57-20.135-6.62-11.883-12.791-37.046-14.121-57.573l-.51-7.862-6.623 6.666c-9.658 9.72-34.594 31.413-46.965 40.856-30.667 23.411-55.521 38.422-83.583 50.48-47.523 20.42-86.187 22.048-109.45 4.61-2.025-1.519-5.996-4.339-8.824-6.267-8.543-5.824-11.3-9.17-22.304-27.086-6.803-11.075-8.708-14.678-10.786-20.394-5.655-15.564-7.753-32.202-6.27-49.71.445-5.258.99-10.42 1.209-11.473.36-1.718.153-1.59-2.043 1.275-1.343 1.753-8.327 11.79-15.519 22.306-25.049 36.626-35.944 50.283-49.062 61.502-12.141 10.383-21.791 13.392-29.91 9.326-3.921-1.964-11.845-7.905-14.277-10.705-3.35-3.857-12.125-18.044-14.679-23.735-2.146-4.78-5.697-17.011-5.697-19.62 0-2.824-1.278.053-5.998 13.506-11.48 32.722-18.047 50.783-22.362 61.502-4.934 12.259-15.82 32.753-21.577 40.617-6.847 9.356-16.228 16.684-24.606 19.22-4.17 1.264-10.258 1.796-12.633 1.104zM722.9 631.92c0-.34-.814-1.007-1.81-1.482-.998-.477-3.081-2.918-4.644-5.444-4.713-7.615-3.852-10.445 5.526-18.173 9.978-8.223 13.963-10.367 24.174-13.006 9.36-2.42 18.444-3.601 26.047-3.388 8.23.23 8.548.678 4.59 6.458-8.274 12.082-18.342 22.978-24.472 26.487-5.582 3.195-20.645 8.457-25.282 8.832-2.448.198-4.13.082-4.13-.284z"
          strokeWidth={0.675}
        />
      </clipPath>
    </defs>
    <path
      id="nick"
      d="M187.08 389.93S375 179.2 417.29 338.322c42.29 159.13-100.01 619.61-100.01 619.61s-12.164 46.629-15.205 19.26 12.164-82.108 12.164-82.108l37.506-128.74 87.684-359.35 13.178-23.822s108.46-130.26 140.4-93.259c31.931 36.999 18.753 127.22 18.753 127.22l-32.945 329.95s-19.26 127.72-19.26 155.09c0 27.369 21.287 186.52 73.999 27.369 52.712-159.15 61.835-192.6 61.835-192.6l14.192-26.356s22.301-14.192 20.274-5.068c-2.027 9.123-24.328 63.862-24.328 63.862s-24.328 78.054-7.096 119.61 3.041 68.93 57.78 0c54.74-68.931 143.94-192.6 199.7-190.57 55.753 2.027 29.397 47.643 29.397 47.643s-14.192 37.506-28.383 2.027c-14.192-35.479-28.383-20.274-45.616-6.082s-81.095 60.82-75.013 120.63c6.082 59.807 35.48 125.7 128.74 68.93 93.26-56.765 191.59-173.34 206.79-216.93 15.205-43.587 38.52-131.78 31.424-162.19s-21.287-15.204-21.287-15.204-99.34 327.42-34.465 403.45c64.876 76.026-22.3-104.41-22.3-104.41s30.41-59.807 68.93-77.04 77.04-37.506 94.272-14.192c17.233 23.315-15.205 64.876-87.177 93.259-71.972 28.383 190.57 69.944 190.57 69.944l154.08 6.082 14.192-3.041s-261.53-452.1-326.41-451.09c-64.876 1.014-294.98 141.92-312.21 168.27s-212.87 19.26-212.87 19.26h-35.479l14.192-17.233 19.26-3.041s-39.534 16.219 16.22-8.11c55.752-24.328 89.203-40.547 89.203-40.547l-7.096 23.315"
      clipPath="url(#a)"
      fill="none"
      stroke="#FFFFFF"
      strokeWidth={51.647}
    />
  </svg>